<svg width="114" height="30" viewBox="0 0 114 30" fill="none" xmlns="http://www.w3.org/2000/svg">
<path fill-rule="evenodd" clip-rule="evenodd" d="M21.8585 2.0729C25.1197 3.54188 26.8531 6.18606 26.8825 9.74101L27 20.5528C27 24.0196 25.2078 26.605 21.7998 28.0152C19.2731 29.0141 16.864 29.0729 16.8346 29.0729C16.2764 29.1023 14.3667 29.1023 11.9576 29.1023C9.94718 29.1023 7.6065 29.0926 5.61703 29.0843C4.14668 29.0782 2.86816 29.0729 2.05658 29.0729H0.440696C0.205658 29.0729 0 28.8672 0 28.6322V1.3384C0 1.10336 0.205658 0.897705 0.440696 0.897705H1.43961C9.69532 0.956465 14.4842 0.956465 17.0696 0.956465C17.099 0.956465 19.4494 0.985844 21.8585 2.0729ZM6.34581 5.73511C5.34378 5.73511 4.51392 6.56497 4.51392 7.567C4.51392 8.56904 5.34378 9.3989 6.34581 9.3989H16.7757C17.2401 9.4727 17.6611 9.68679 17.9516 9.99629C18.2151 10.2791 18.4141 10.7295 18.4398 11.2559C18.4359 11.7057 18.2696 12.155 17.9652 12.5L17.963 12.5025C17.7035 12.7991 17.2644 13.0349 16.8046 13.1094H6.43395C5.43192 13.1094 4.60206 13.9393 4.60206 14.9413C4.60206 15.4938 4.81811 15.9536 5.20586 16.286C5.50284 16.5405 5.91658 16.7732 6.43395 16.7732H16.8639C17.3285 16.8471 17.7498 17.0614 18.0403 17.3712L18.0492 17.3807L18.0583 17.3899C18.3206 17.6522 18.4987 18.0792 18.4987 18.6138C18.4987 19.069 18.3321 19.5251 18.024 19.8743L18.0218 19.8768C17.7622 20.1734 17.3232 20.4092 16.8633 20.4837H6.55147C5.54944 20.4837 4.71957 21.3136 4.71957 22.3156C4.71957 23.3177 5.54944 24.1475 6.55147 24.1475H17.3578L17.4107 24.1405C18.4508 24.0018 19.4373 23.5541 20.2744 22.8844L20.2872 22.8741L20.2997 22.8633C21.0851 22.1803 21.7011 21.2587 22.0111 20.2256C22.3207 19.1935 22.3207 18.0928 22.0111 17.0608L22.0051 17.0409L21.9981 17.0214C21.7286 16.2666 21.3089 15.5563 20.7567 14.941C21.2665 14.3498 21.664 13.6458 21.8935 12.8806C22.2031 11.8486 22.2032 10.7479 21.8936 9.71584L21.8913 9.70858C21.5809 8.70845 20.9979 7.82555 20.1979 7.09214L20.185 7.08039L20.1717 7.0692C19.3288 6.36119 18.3714 5.91502 17.2816 5.74474L17.22 5.73511H6.34581Z" fill="white"/>
<path d="M36.17 22.8977V6.1537H45.374C47.0727 6.1537 48.364 6.55237 49.248 7.3497C50.132 8.14704 50.574 9.29104 50.574 10.7817C50.574 11.6484 50.4093 12.3764 50.08 12.9657C49.768 13.555 49.352 14.023 48.832 14.3697C49.5427 14.647 50.106 15.0544 50.522 15.5917C50.9553 16.1117 51.172 16.8917 51.172 17.9317C51.172 19.509 50.6867 20.731 49.716 21.5977C48.7453 22.4644 47.3673 22.8977 45.582 22.8977H36.17ZM40.876 12.8357H44.048C45.244 12.8357 45.842 12.2984 45.842 11.2237C45.842 10.6864 45.6947 10.279 45.4 10.0017C45.1227 9.72437 44.6287 9.5857 43.918 9.5857H40.876V12.8357ZM40.876 19.4917H44.256C44.9147 19.4917 45.4 19.353 45.712 19.0757C46.024 18.7984 46.18 18.339 46.18 17.6977C46.18 17.1604 46.024 16.753 45.712 16.4757C45.4 16.1984 44.88 16.0597 44.152 16.0597H40.876V19.4917ZM56.852 23.1577C56.072 23.1577 55.344 23.019 54.668 22.7417C54.0093 22.4644 53.4807 22.031 53.082 21.4417C52.6833 20.8524 52.484 20.107 52.484 19.2057C52.484 17.9057 52.9173 16.9004 53.784 16.1897C54.6507 15.4617 55.9593 15.0977 57.71 15.0977H60.908V14.8637C60.908 14.3784 60.7087 14.023 60.31 13.7977C59.9113 13.5724 59.2093 13.4597 58.204 13.4597C56.7827 13.4597 55.3787 13.6764 53.992 14.1097V11.1717C54.616 10.929 55.396 10.7297 56.332 10.5737C57.268 10.4004 58.2213 10.3137 59.192 10.3137C61.1507 10.3137 62.702 10.7124 63.846 11.5097C64.99 12.307 65.562 13.5724 65.562 15.3057V22.8977H61.298L61.064 21.9097C60.6307 22.291 60.0673 22.5944 59.374 22.8197C58.698 23.045 57.8573 23.1577 56.852 23.1577ZM58.516 20.2977C59.0707 20.2977 59.5387 20.2024 59.92 20.0117C60.3187 19.821 60.648 19.587 60.908 19.3097V17.7757H58.542C57.4673 17.7757 56.93 18.2004 56.93 19.0497C56.93 19.8817 57.4587 20.2977 58.516 20.2977ZM67.7813 22.8977V10.5737H72.3573L72.4873 11.5097C72.9553 11.1977 73.5707 10.9204 74.3333 10.6777C75.1133 10.435 75.9453 10.3137 76.8293 10.3137C78.372 10.3137 79.4987 10.695 80.2093 11.4577C80.92 12.2204 81.2753 13.399 81.2753 14.9937V22.8977H76.3873V15.4877C76.3873 14.933 76.266 14.5344 76.0233 14.2917C75.7807 14.049 75.356 13.9277 74.7493 13.9277C74.3853 13.9277 74.004 14.0144 73.6053 14.1877C73.224 14.361 72.912 14.569 72.6693 14.8117V22.8977H67.7813ZM88.5464 23.1577C87.3851 23.1577 86.3711 22.967 85.5044 22.5857C84.6551 22.187 83.9877 21.5457 83.5024 20.6617C83.0344 19.7777 82.8004 18.599 82.8004 17.1257C82.8004 15.6177 83.0691 14.361 83.6064 13.3557C84.1437 12.3504 84.8631 11.5964 85.7644 11.0937C86.6657 10.5737 87.6451 10.3137 88.7024 10.3137C89.2744 10.3137 89.8377 10.3744 90.3924 10.4957C90.9644 10.617 91.4584 10.7904 91.8744 11.0157V5.3737H96.7624V22.8977H92.5244L92.2904 21.9357C91.8051 22.317 91.2591 22.6204 90.6524 22.8457C90.0631 23.0537 89.3611 23.1577 88.5464 23.1577ZM89.9504 19.6217C90.6957 19.6217 91.3371 19.3704 91.8744 18.8677V14.4997C91.3891 14.0664 90.7477 13.8497 89.9504 13.8497C89.3091 13.8497 88.7891 14.1357 88.3904 14.7077C87.9917 15.2797 87.7924 16.0944 87.7924 17.1517C87.7924 18.1917 87.9657 18.8677 88.3124 19.1797C88.6591 19.4744 89.2051 19.6217 89.9504 19.6217ZM105.541 23.1577C103.08 23.1577 101.26 22.6117 100.081 21.5197C98.9201 20.4277 98.3395 18.833 98.3395 16.7357C98.3395 14.6557 98.9288 13.0697 100.107 11.9777C101.286 10.8684 103.097 10.3137 105.541 10.3137C108.003 10.3137 109.823 10.8684 111.001 11.9777C112.197 13.0697 112.795 14.6557 112.795 16.7357C112.795 18.833 112.206 20.4277 111.027 21.5197C109.849 22.6117 108.02 23.1577 105.541 23.1577ZM105.541 19.5957C106.339 19.5957 106.911 19.3704 107.257 18.9197C107.621 18.469 107.803 17.741 107.803 16.7357C107.803 15.7477 107.621 15.0284 107.257 14.5777C106.911 14.1097 106.339 13.8757 105.541 13.8757C104.761 13.8757 104.198 14.1097 103.851 14.5777C103.505 15.0284 103.331 15.7477 103.331 16.7357C103.331 17.741 103.505 18.469 103.851 18.9197C104.198 19.3704 104.761 19.5957 105.541 19.5957Z" fill="white"/>
</svg>
